<svg width="124" height="176" viewBox="0 0 124 176" fill="none" xmlns="http://www.w3.org/2000/svg">
    <style>
    /* Define keyframes for hue rotation */
    @keyframes hue-rotate {
      0% {
        filter: hue-rotate(0deg);
      }
      100% {
        filter: hue-rotate(360deg);
      }
    }
    
    /* Apply the hue rotation to the path */
    .rgb-stroke {
      animation: hue-rotate 5s infinite linear;
    }
  </style>
      <path class="rgb-stroke" d="M101.094 94.051L39.2648 32.6526V4L121.704 85.8645V122.704M39.2648 38.7924V61.3052L101.094 122.704M39.2648 67.445V89.9578L101.094 151.356M101.094 151.356L121.704 171.822V151.356H101.094ZM39.2648 110.424V151.356L59.8746 171.822H101.094L80.4843 151.356M80.4843 151.356H59.8746V130.89L80.4843 151.356ZM72.2404 16.2797L59.8746 4L105.216 4L121.704 20.3729V53.1187M101.094 16.2797L109.338 24.4661V40.839" stroke="#FB4934" stroke-width="3"></path>
      <path d="M2.19997 167.28C1.64769 167.28 1.19997 166.832 1.19997 166.28V161.2C1.19997 160.67 1.62978 160.24 2.15997 160.24C2.69016 160.24 3.11997 160.67 3.11997 161.2V164.04C3.11997 164.592 3.56769 165.04 4.11997 165.04H18.448C19.0453 165.04 19.5466 164.891 19.952 164.592C20.3573 164.272 20.56 163.835 20.56 163.28C20.56 162.704 20.368 162.267 19.984 161.968C19.5786 161.669 19.0666 161.52 18.448 161.52H15.64C15.0877 161.52 14.64 161.072 14.64 160.52V160.28C14.64 159.728 15.0877 159.28 15.64 159.28H18.32C19.664 159.28 20.6986 159.643 21.424 160.368C22.128 161.072 22.48 162.032 22.48 163.248C22.48 164.464 22.128 165.445 21.424 166.192C20.6986 166.917 19.664 167.28 18.32 167.28H2.19997Z M21 152.56C21.5523 152.56 22 153.008 22 153.56V153.8C22 154.352 21.5523 154.8 21 154.8H2.19997C1.64769 154.8 1.19997 154.352 1.19997 153.8V153.56C1.19997 153.008 1.64769 152.56 2.19997 152.56H9.47997C10.0323 152.56 10.48 152.112 10.48 151.56V147.256C10.48 146.704 10.0323 146.256 9.47997 146.256H2.19997C1.64769 146.256 1.19997 145.808 1.19997 145.256V145.016C1.19997 144.464 1.64769 144.016 2.19997 144.016H21C21.5523 144.016 22 144.464 22 145.016V145.256C22 145.808 21.5523 146.256 21 146.256H13.4C12.8477 146.256 12.4 146.704 12.4 147.256V151.56C12.4 152.112 12.8477 152.56 13.4 152.56H21Z M18 129.772H17.24C16.6877 129.772 16.24 129.325 16.24 128.772V128.532C16.24 127.98 16.6877 127.532 17.24 127.532H18C19.4293 127.532 20.5386 127.97 21.328 128.844C22.096 129.719 22.48 131.031 22.48 132.78C22.48 134.53 22.096 135.852 21.328 136.748C20.5386 137.644 19.4293 138.092 18 138.092H5.19997C3.77064 138.092 2.67197 137.655 1.90397 136.781C1.11464 135.906 0.719971 134.594 0.719971 132.844C0.719971 131.095 1.11464 129.772 1.90397 128.876C2.67197 127.98 3.77064 127.532 5.19997 127.532H11.24C11.7923 127.532 12.24 127.98 12.24 128.532V134.852C12.24 135.405 12.6877 135.852 13.24 135.852H18C19.7066 135.852 20.56 134.839 20.56 132.812C20.56 130.786 19.7066 129.772 18 129.772ZM5.19997 135.852H9.31997C9.87225 135.852 10.32 135.405 10.32 134.852V130.772C10.32 130.22 9.87226 129.772 9.31997 129.772H5.19997C3.4933 129.772 2.63997 130.786 2.63997 132.812C2.63997 134.839 3.4933 135.852 5.19997 135.852Z M18 104.061C20.9866 104.061 22.48 105.864 22.48 109.469C22.48 113.075 20.9866 114.877 18 114.877H16.28C15.7277 114.877 15.28 114.43 15.28 113.877V113.637C15.28 113.085 15.7277 112.637 16.28 112.637H18.128C18.896 112.637 19.4933 112.371 19.92 111.837C20.3466 111.304 20.56 110.515 20.56 109.469C20.56 108.424 20.3466 107.635 19.92 107.101C19.4933 106.568 18.9173 106.301 18.192 106.301C17.4453 106.301 16.8586 106.387 16.432 106.557C15.984 106.707 15.5146 107.027 15.024 107.517L9.51997 113.149C8.85864 113.811 8.21864 114.269 7.59997 114.525C6.95997 114.76 6.15997 114.877 5.19997 114.877C3.77064 114.877 2.67197 114.44 1.90397 113.565C1.11464 112.669 0.719971 111.325 0.719971 109.533C0.719971 106.099 2.2133 104.381 5.19997 104.381H6.91997C7.47226 104.381 7.91997 104.829 7.91997 105.381V105.621C7.91997 106.174 7.47226 106.621 6.91997 106.621H5.07197C4.30397 106.621 3.70664 106.877 3.27997 107.389C2.8533 107.88 2.63997 108.627 2.63997 109.629C2.63997 110.632 2.8533 111.389 3.27997 111.901C3.70664 112.392 4.2933 112.637 5.03997 112.637C5.78664 112.637 6.3733 112.563 6.79997 112.413C7.22664 112.264 7.67464 111.933 8.14397 111.421L13.648 105.693C14.3306 105.075 14.992 104.648 15.632 104.413C16.2506 104.179 17.04 104.061 18 104.061Z M21 96.06C21.5523 96.06 22 96.5077 22 97.06V97.3C22 97.8523 21.5523 98.3 21 98.3H2.19997C1.64769 98.3 1.19997 97.8523 1.19997 97.3V97.06C1.19997 96.5077 1.64769 96.06 2.19997 96.06H21Z M22 88.675C22 89.2273 21.5523 89.675 21 89.675H2.19997C1.64769 89.675 1.19997 89.2273 1.19997 88.675V88.435C1.19997 87.8827 1.64769 87.435 2.19997 87.435H19.08C19.6323 87.435 20.08 86.9873 20.08 86.435V82.539C20.08 82.0088 20.5098 81.579 21.04 81.579C21.5702 81.579 22 82.0088 22 82.539V88.675Z M21 75.4975C21.5523 75.4975 22 75.9452 22 76.4975V76.7375C22 77.2898 21.5523 77.7375 21 77.7375H2.19997C1.64769 77.7375 1.19997 77.2898 1.19997 76.7375V76.4975C1.19997 75.9452 1.64769 75.4975 2.19997 75.4975H21Z M2.19997 69.5925C1.64769 69.5925 1.19997 69.1448 1.19997 68.5925V63.5125C1.19997 62.9823 1.62978 62.5525 2.15997 62.5525C2.69016 62.5525 3.11997 62.9823 3.11997 63.5125V66.3525C3.11997 66.9048 3.56769 67.3525 4.11997 67.3525H18.448C19.0453 67.3525 19.5466 67.2032 19.952 66.9045C20.3573 66.5845 20.56 66.1472 20.56 65.5925C20.56 65.0165 20.368 64.5792 19.984 64.2805C19.5786 63.9818 19.0666 63.8325 18.448 63.8325H15.64C15.0877 63.8325 14.64 63.3848 14.64 62.8325V62.5925C14.64 62.0402 15.0877 61.5925 15.64 61.5925H18.32C19.664 61.5925 20.6986 61.9552 21.424 62.6805C22.128 63.3845 22.48 64.3445 22.48 65.5605C22.48 66.7765 22.128 67.7578 21.424 68.5045C20.6986 69.2298 19.664 69.5925 18.32 69.5925H2.19997Z M5.19997 46.7125H18C19.4293 46.7125 20.5386 47.1712 21.328 48.0885C22.096 48.9845 22.48 50.3392 22.48 52.1525C22.48 53.9445 22.096 55.2992 21.328 56.2165C20.5386 57.1338 19.4293 57.5925 18 57.5925H5.19997C3.77064 57.5925 2.67197 57.1445 1.90397 56.2485C1.11464 55.3312 0.719971 53.9765 0.719971 52.1845C0.719971 50.3712 1.11464 49.0058 1.90397 48.0885C2.67197 47.1712 3.77064 46.7125 5.19997 46.7125ZM18 48.9525H5.19997C3.4933 48.9525 2.63997 50.0192 2.63997 52.1525C2.63997 54.2858 3.4933 55.3525 5.19997 55.3525H18C19.7066 55.3525 20.56 54.2858 20.56 52.1525C20.56 50.0192 19.7066 48.9525 18 48.9525Z M21 38.56C21.5523 38.56 22 39.0077 22 39.56V39.8C22 40.3523 21.5523 40.8 21 40.8H1.76909C1.45478 40.8 1.19997 40.5452 1.19997 40.2309C1.19997 39.9954 1.345 39.7842 1.56479 39.6997L1.7219 39.6393C2.35505 39.3957 2.43889 38.5026 1.97256 38.0099C1.1375 37.1277 0.719971 36.0524 0.719971 34.784C0.719971 31.648 2.2133 30.08 5.19997 30.08H21C21.5523 30.08 22 30.5277 22 31.08V31.32C22 31.8723 21.5523 32.32 21 32.32H5.19997C4.3893 32.32 3.75997 32.5013 3.31197 32.864C2.86397 33.2053 2.63997 33.8453 2.63997 34.784C2.63997 35.7227 3.00264 36.5867 3.72797 37.376C4.4533 38.1653 5.1573 38.56 5.83997 38.56H21Z M21 21.7475C21.5523 21.7475 22 22.1952 22 22.7475V22.9875C22 23.5398 21.5523 23.9875 21 23.9875H2.19997C1.64769 23.9875 1.19997 23.5398 1.19997 22.9875V22.7475C1.19997 22.1952 1.64769 21.7475 2.19997 21.7475H21Z M20.5936 6.00404C21.2549 5.7099 22 6.19396 22 6.91774V7.06593C22 7.46045 21.768 7.8181 21.4078 7.97899L15.9483 10.4174C15.1587 10.7701 15.1587 11.8909 15.9483 12.2436L21.4078 14.682C21.768 14.8429 22 15.2005 22 15.5951V15.7391C22 16.4639 21.2529 16.948 20.5913 16.6518L11.6871 12.6648C11.428 12.5488 11.1318 12.5484 10.8723 12.6637L2.60611 16.3375C1.94482 16.6315 1.19997 16.1474 1.19997 15.4237V15.2777C1.19997 14.8819 1.43351 14.5232 1.79559 14.3631L6.89459 12.1086C7.68575 11.7588 7.68961 10.6375 6.90088 10.2823L1.78929 7.97993C1.43061 7.81838 1.19997 7.46154 1.19997 7.06815V6.9216C1.19997 6.19683 1.94692 5.71278 2.60846 6.00884L11.1607 9.83625C11.4199 9.95224 11.7162 9.95258 11.9756 9.83718L20.5936 6.00404Z" fill="#888888"></path>
  </svg>
