<svg viewBox="0 0 202 299" fill="none" xmlns="http://www.w3.org/2000/svg">
<path d="M164 159.927L59 55.6585V7L199 146.024V208.585M59 66.0854V104.317L164 208.585M59 114.744V152.976L164 257.244M164 257.244L199 292V257.244H164ZM59 187.732V257.244L94 292H164L129 257.244M129 257.244H94V222.488L129 257.244ZM115 27.8537L94 7L171 7L199 34.8049V90.4146M164 27.8537L178 41.7561V69.561" stroke="#888888" stroke-width="5" stroke-linecap="round"/>
<path d="M11.508 270.844H15.204V280.436H42V284.704H15.204V294.296H11.508L11.508 270.844ZM11.508 247.153V242.885H42V247.153H27.92V262.069H42V266.337H11.508V262.069H24.224V247.153H11.508ZM42 235.314H11.508L11.508 216.702H15.16L15.16 231.046H24.224V218.286H27.788V231.046H38.348V215.602H42V235.314ZM38.964 192.909C38.964 188.451 37.4387 186.221 34.388 186.221C33.4493 186.221 32.6573 186.427 32.012 186.837C31.3373 187.219 30.7653 187.747 30.296 188.421C29.7973 189.096 29.372 189.873 29.02 190.753C28.668 191.604 28.316 192.513 27.964 193.481C27.5827 194.596 27.1573 195.652 26.688 196.649C26.1893 197.647 25.6173 198.512 24.972 199.245C24.2973 199.979 23.5053 200.565 22.596 201.005C21.6867 201.416 20.5867 201.621 19.296 201.621C16.6267 201.621 14.544 200.712 13.048 198.893C11.552 197.075 10.804 194.567 10.804 191.369C10.804 189.521 11.0093 187.849 11.42 186.353C11.8013 184.828 12.2267 183.713 12.696 183.009L16.172 184.373C15.7907 184.989 15.424 185.913 15.072 187.145C14.6907 188.348 14.5 189.756 14.5 191.369C14.5 192.191 14.588 192.953 14.764 193.657C14.94 194.361 15.204 194.977 15.556 195.505C15.908 196.033 16.3627 196.459 16.92 196.781C17.448 197.075 18.0787 197.221 18.812 197.221C19.6333 197.221 20.3227 197.06 20.88 196.737C21.4373 196.415 21.936 195.96 22.376 195.373C22.7867 194.787 23.168 194.112 23.52 193.349C23.872 192.557 24.224 191.692 24.576 190.753C25.104 189.433 25.632 188.231 26.16 187.145C26.688 186.031 27.3187 185.077 28.052 184.285C28.7853 183.464 29.6653 182.833 30.692 182.393C31.6893 181.953 32.9067 181.733 34.344 181.733C37.0133 181.733 39.0667 182.716 40.504 184.681C41.9413 186.617 42.66 189.36 42.66 192.909C42.66 194.112 42.572 195.227 42.396 196.253C42.2493 197.251 42.0733 198.145 41.868 198.937C41.6333 199.729 41.3987 200.419 41.164 201.005C40.9 201.563 40.68 202.003 40.504 202.325L36.984 201.049C37.3653 200.375 37.7907 199.348 38.26 197.969C38.7293 196.591 38.964 194.904 38.964 192.909ZM11.508 176.575V172.307H42V176.575H11.508ZM38.304 146.411H42V164.759H11.508L11.508 160.491H38.304V146.411ZM11.508 141.943V137.675H42V141.943H11.508ZM11.508 109.754H15.204V119.346H42L42 123.614H15.204V133.206H11.508V109.754ZM26.732 107.682C24.1213 107.682 21.8187 107.301 19.824 106.538C17.8293 105.746 16.172 104.69 14.852 103.37C13.5027 102.021 12.4907 100.466 11.816 98.7064C11.1413 96.917 10.804 95.025 10.804 93.0304C10.804 91.065 11.1413 89.217 11.816 87.4864C12.4907 85.7264 13.5027 84.1864 14.852 82.8664C16.172 81.5464 17.8293 80.505 19.824 79.7424C21.8187 78.9504 24.1213 78.5544 26.732 78.5544C29.3427 78.5544 31.6453 78.9504 33.64 79.7424C35.6347 80.505 37.3067 81.5464 38.656 82.8664C39.976 84.1864 40.9733 85.7264 41.648 87.4864C42.3227 89.217 42.66 91.065 42.66 93.0304C42.66 95.025 42.3227 96.917 41.648 98.7064C40.9733 100.466 39.976 102.021 38.656 103.37C37.3067 104.69 35.6347 105.746 33.64 106.538C31.6453 107.301 29.3427 107.682 26.732 107.682ZM26.732 103.194C28.58 103.194 30.2667 102.96 31.792 102.49C33.288 102.021 34.564 101.361 35.62 100.51C36.676 99.6304 37.4973 98.5744 38.084 97.3424C38.6413 96.081 38.92 94.673 38.92 93.1184C38.92 91.5637 38.6413 90.1704 38.084 88.9384C37.4973 87.7064 36.676 86.665 35.62 85.8144C34.564 84.9344 33.288 84.2597 31.792 83.7904C30.2667 83.321 28.58 83.0864 26.732 83.0864C24.884 83.0864 23.212 83.321 21.716 83.7904C20.1907 84.2597 18.9 84.9344 17.844 85.8144C16.788 86.665 15.9813 87.7064 15.424 88.9384C14.8373 90.1704 14.544 91.5637 14.544 93.1184C14.544 94.673 14.8373 96.081 15.424 97.3424C15.9813 98.5744 16.788 99.6304 17.844 100.51C18.9 101.361 20.1907 102.021 21.716 102.49C23.212 102.96 24.884 103.194 26.732 103.194ZM42 51.3043C40.9147 51.9496 39.6973 52.6976 38.348 53.5483C36.9987 54.3696 35.6053 55.2643 34.168 56.2323C32.7013 57.2003 31.22 58.2123 29.724 59.2683C28.228 60.2949 26.7907 61.3216 25.412 62.3483C24.004 63.3749 22.684 64.3723 21.452 65.3403C20.22 66.3083 19.1347 67.2029 18.196 68.0243H42V72.2043H11.508V68.8163C12.9747 67.4376 14.6907 65.9709 16.656 64.4163C18.592 62.8323 20.6013 61.2776 22.684 59.7523C24.7373 58.1976 26.7613 56.7456 28.756 55.3963C30.7507 54.0176 32.5253 52.8589 34.08 51.9203H11.508L11.508 47.7403H42V51.3043ZM11.508 40.1926V35.9246H42V40.1926H11.508ZM42 10.0722C41.12 10.5122 40.152 11.0402 39.096 11.6562C38.0107 12.2722 36.896 12.9468 35.752 13.6802C34.5787 14.4135 33.42 15.1762 32.276 15.9682C31.1027 16.7602 30.0027 17.5228 28.976 18.2562C30.0027 18.9895 31.1027 19.7522 32.276 20.5442C33.42 21.3362 34.5787 22.0988 35.752 22.8322C36.896 23.5362 38.0107 24.2108 39.096 24.8562C40.152 25.4722 41.12 26.0002 42 26.4402V31.1482C39.4187 29.8282 36.7933 28.3028 34.124 26.5722C31.4547 24.8122 28.712 22.9495 25.896 20.9842L11.508 30.7522V25.8242L22.86 18.3002L11.508 10.8642V5.98015L25.72 15.5722C28.5653 13.5775 31.3373 11.7002 34.036 9.94016C36.7347 8.18016 39.3893 6.62549 42 5.27616V10.0722Z" fill="tomato"/>
</svg>
